<svg width="24" height="24" viewBox="0 0 24 24" fill="none" xmlns="http://www.w3.org/2000/svg">
  <path d="M12.22 2H11.78L10.59 4.51C9.69 4.88 8.86 5.42 8.16 6.12L5.59 5.37L4.17 7.75L6.12 9.68C6.04 10.15 6 10.63 6 11.12C6 11.61 6.04 12.09 6.12 12.56L4.17 14.49L5.59 16.87L8.16 16.12C8.86 16.82 9.69 17.36 10.59 17.73L11.78 20.24H14.16L15.35 17.73C16.25 17.36 17.08 16.82 17.78 16.12L20.35 16.87L21.77 14.49L19.82 12.56C19.9 12.09 19.94 11.61 19.94 11.12C19.94 10.63 19.9 10.15 19.82 9.68L21.77 7.75L20.35 5.37L17.78 6.12C17.08 5.42 16.25 4.88 15.35 4.51L14.16 2H12.22ZM12.97 14.12C11.31 14.12 9.97 12.78 9.97 11.12C9.97 9.46 11.31 8.12 12.97 8.12C14.63 8.12 15.97 9.46 15.97 11.12C15.97 12.78 14.63 14.12 12.97 14.12Z" stroke="#1A1A1A" stroke-width="2" stroke-linecap="round" stroke-linejoin="round"/>
</svg>
